{
    "asset" : {
        "generator" : "Khronos glTF Blender I/O v1.5.17",
        "version" : "2.0"
    },
    "scene" : 0,
    "scenes" : [
        {
            "name" : "Scene",
            "nodes" : [
                0,
                1,
                2,
                3,
                4,
                5,
                6,
                7
            ]
        }
    ],
    "nodes" : [
        {
            "name" : "Empty",
            "rotation" : [
                0.4637478291988373,
                0.43372347950935364,
                -0.32995888590812683,
                0.6985334753990173
            ],
            "translation" : [
                0.18518733978271484,
                0.2053666114807129,
                -0.6724028587341309
            ]
        },
        {
            "name" : "Empty.001",
            "rotation" : [
                0.4389207363128662,
                0.45883187651634216,
                -0.29061833024024963,
                0.7157952785491943
            ],
            "scale" : [
                0.8803325295448303,
                0.9821466207504272,
                0.994914710521698
            ],
            "translation" : [
                -1.6383548974990845,
                0.2053666114807129,
                0.6648613810539246
            ]
        },
        {
            "name" : "Empty.002",
            "rotation" : [
                0.5083906054496765,
                0.20837587118148804,
                -0.13656297326087952,
                0.824299156665802
            ],
            "scale" : [
                0.8803325295448303,
                0.9821466207504272,
                0.994914710521698
            ],
            "translation" : [
                -1.6383548974990845,
                0.2053666114807129,
                -1.408970832824707
            ]
        },
        {
            "name" : "Empty.003",
            "rotation" : [
                0.6069739460945129,
                0.6017282605171204,
                0.3957824110984802,
                0.3359493613243103
            ],
            "scale" : [
                0.8803325295448303,
                0.9821466207504272,
                0.994914710521698
            ],
            "translation" : [
                -1.7956801652908325,
                0.2053666114807129,
                1.3013134002685547
            ]
        },
        {
            "name" : "Empty.004",
            "rotation" : [
                0.6632001399993896,
                0.7160251140594482,
                0.18572267889976501,
                0.11393283307552338
            ],
            "scale" : [
                0.8803325295448303,
                0.9821466207504272,
                0.994914710521698
            ],
            "translation" : [
                -1.7956801652908325,
                0.2053666114807129,
                -2.539710521697998
            ]
        },
        {
            "mesh" : 0,
            "name" : "Cube"
        },
        {
            "name" : "Light",
            "rotation" : [
                0.16907575726509094,
                0.7558803558349609,
                -0.27217137813568115,
                0.570947527885437
            ],
            "translation" : [
                4.076245307922363,
                5.903861999511719,
                -1.0054539442062378
            ]
        },
        {
            "name" : "Camera",
            "rotation" : [
                0.483536034822464,
                0.33687159419059753,
                -0.20870360732078552,
                0.7804827094078064
            ],
            "translation" : [
                7.358891487121582,
                4.958309173583984,
                6.925790786743164
            ]
        }
    ],
    "materials" : [
        {
            "doubleSided" : true,
            "name" : "Material",
            "pbrMetallicRoughness" : {
                "baseColorFactor" : [
                    0.800000011920929,
                    0.800000011920929,
                    0.800000011920929,
                    1
                ],
                "metallicFactor" : 0,
                "roughnessFactor" : 0.4000000059604645
            }
        }
    ],
    "meshes" : [
        {
            "name" : "Cube",
            "primitives" : [
                {
                    "attributes" : {
                        "POSITION" : 0,
                        "NORMAL" : 1,
                        "TEXCOORD_0" : 2
                    },
                    "indices" : 3,
                    "material" : 0
                }
            ]
        }
    ],
    "accessors" : [
        {
            "bufferView" : 0,
            "componentType" : 5126,
            "count" : 24,
            "max" : [
                1,
                1,
                1
            ],
            "min" : [
                -1,
                -1,
                -1
            ],
            "type" : "VEC3"
        },
        {
            "bufferView" : 1,
            "componentType" : 5126,
            "count" : 24,
            "type" : "VEC3"
        },
        {
            "bufferView" : 2,
            "componentType" : 5126,
            "count" : 24,
            "type" : "VEC2"
        },
        {
            "bufferView" : 3,
            "componentType" : 5123,
            "count" : 36,
            "type" : "SCALAR"
        }
    ],
    "bufferViews" : [
        {
            "buffer" : 0,
            "byteLength" : 288,
            "byteOffset" : 0
        },
        {
            "buffer" : 0,
            "byteLength" : 288,
            "byteOffset" : 288
        },
        {
            "buffer" : 0,
            "byteLength" : 192,
            "byteOffset" : 576
        },
        {
            "buffer" : 0,
            "byteLength" : 72,
            "byteOffset" : 768
        }
    ],
    "buffers" : [
        {
            "byteLength" : 840,
            "uri" : "data:application/octet-stream;base64,"
        }
    ]
}
