{
    "asset" : {
        "generator" : "Khronos glTF Blender I/O v1.5.17",
        "version" : "2.0"
    },
    "scene" : 0,
    "scenes" : [
        {
            "name" : "Scene",
            "nodes" : [
                0,
                1,
                2,
                3,
                4,
                5,
                6,
                7
            ]
        }
    ],
    "nodes" : [
        {
            "name" : "Light",
            "rotation" : [
                0.16907575726509094,
                0.7558803558349609,
                -0.27217137813568115,
                0.570947527885437
            ],
            "translation" : [
                4.076245307922363,
                5.903861999511719,
                -1.0054539442062378
            ]
        },
        {
            "name" : "Camera",
            "rotation" : [
                0.483536034822464,
                0.33687159419059753,
                -0.20870360732078552,
                0.7804827094078064
            ],
            "translation" : [
                7.358891487121582,
                4.958309173583984,
                6.925790786743164
            ]
        },
        {
            "mesh" : 0,
            "name" : "KS5_1291-2_freigestellt_klein",
            "rotation" : [
                0.43876829743385315,
                0.5545109510421753,
                -0.5545109510421753,
                0.43876829743385315
            ],
            "scale" : [
                1.3578511476516724,
                1,
                1.5595390796661377
            ],
            "translation" : [
                0,
                0.9051110744476318,
                -0.6238378882408142
            ]
        },
        {
            "mesh" : 1,
            "name" : "KS5_1291-3_Freigestellt_web_klein",
            "rotation" : [
                0.5505163669586182,
                0.4437698721885681,
                -0.4437699019908905,
                0.5505163669586182
            ],
            "scale" : [
                1.7271372079849243,
                1,
                1.5262342691421509
            ],
            "translation" : [
                -0.2905973792076111,
                1.0104007720947266,
                -0.10176301747560501
            ]
        },
        {
            "mesh" : 2,
            "name" : "KS5_1291_freigestellt_web_klein",
            "rotation" : [
                0.5,
                0.5,
                -0.5,
                0.4999999701976776
            ],
            "translation" : [
                -0.008713076822459698,
                0.815924882888794,
                0.42687320709228516
            ]
        },
        {
            "mesh" : 3,
            "name" : "KS5_1291_freigestellt_web_klein.001",
            "rotation" : [
                0.547116219997406,
                0.4479551613330841,
                -0.4479551911354065,
                0.547116219997406
            ],
            "translation" : [
                0.7906023859977722,
                0.522831380367279,
                -0.3433036804199219
            ]
        },
        {
            "mesh" : 4,
            "name" : "KS5_1291-3_Freigestellt_web_klein.001",
            "rotation" : [
                0.5463956594467163,
                0.4488338530063629,
                -0.4488338530063629,
                0.5463955998420715
            ],
            "translation" : [
                0.6147003173828125,
                0.6040627956390381,
                0.17423750460147858
            ]
        },
        {
            "mesh" : 5,
            "name" : "KS5_1291-2_freigestellt_klein.001",
            "rotation" : [
                0.4506247043609619,
                0.5449196100234985,
                -0.5449196100234985,
                0.4506246745586395
            ],
            "scale" : [
                1.2828361988067627,
                1,
                1.249731421470642
            ],
            "translation" : [
                -0.3863869905471802,
                0.6843896508216858,
                0.8647863864898682
            ]
        }
    ],
    "materials" : [
        {
            "alphaMode" : "BLEND",
            "doubleSided" : true,
            "name" : "KS5_1291-2_freigestellt_klein",
            "pbrMetallicRoughness" : {
                "baseColorTexture" : {
                    "index" : 0
                },
                "metallicFactor" : 0,
                "roughnessFactor" : 0.5
            }
        },
        {
            "alphaMode" : "BLEND",
            "doubleSided" : true,
            "name" : "KS5_1291-3_Freigestellt_web_klein",
            "pbrMetallicRoughness" : {
                "baseColorTexture" : {
                    "index" : 1
                },
                "metallicFactor" : 0,
                "roughnessFactor" : 0.5
            }
        },
        {
            "alphaMode" : "BLEND",
            "doubleSided" : true,
            "name" : "KS5_1291_freigestellt_web_klein",
            "pbrMetallicRoughness" : {
                "baseColorTexture" : {
                    "index" : 2
                },
                "metallicFactor" : 0,
                "roughnessFactor" : 0.5
            }
        },
        {
            "alphaMode" : "BLEND",
            "doubleSided" : true,
            "name" : "KS5_1291_freigestellt_web_klein.001",
            "pbrMetallicRoughness" : {
                "baseColorTexture" : {
                    "index" : 3
                },
                "metallicFactor" : 0,
                "roughnessFactor" : 0.5
            }
        },
        {
            "alphaMode" : "BLEND",
            "doubleSided" : true,
            "name" : "KS5_1291-3_Freigestellt_web_klein.001",
            "pbrMetallicRoughness" : {
                "baseColorTexture" : {
                    "index" : 4
                },
                "metallicFactor" : 0,
                "roughnessFactor" : 0.5
            }
        },
        {
            "alphaMode" : "BLEND",
            "doubleSided" : true,
            "name" : "KS5_1291-2_freigestellt_klein.001",
            "pbrMetallicRoughness" : {
                "baseColorTexture" : {
                    "index" : 5
                },
                "metallicFactor" : 0,
                "roughnessFactor" : 0.5
            }
        }
    ],
    "meshes" : [
        {
            "name" : "KS5_1291-2_freigestellt_klein",
            "primitives" : [
                {
                    "attributes" : {
                        "POSITION" : 0,
                        "NORMAL" : 1,
                        "TEXCOORD_0" : 2
                    },
                    "indices" : 3,
                    "material" : 0
                }
            ]
        },
        {
            "name" : "KS5_1291-3_Freigestellt_web_klein",
            "primitives" : [
                {
                    "attributes" : {
                        "POSITION" : 4,
                        "NORMAL" : 5,
                        "TEXCOORD_0" : 6
                    },
                    "indices" : 3,
                    "material" : 1
                }
            ]
        },
        {
            "name" : "KS5_1291_freigestellt_web_klein",
            "primitives" : [
                {
                    "attributes" : {
                        "POSITION" : 7,
                        "NORMAL" : 8,
                        "TEXCOORD_0" : 9
                    },
                    "indices" : 3,
                    "material" : 2
                }
            ]
        },
        {
            "name" : "KS5_1291_freigestellt_web_klein.001",
            "primitives" : [
                {
                    "attributes" : {
                        "POSITION" : 10,
                        "NORMAL" : 11,
                        "TEXCOORD_0" : 12
                    },
                    "indices" : 3,
                    "material" : 3
                }
            ]
        },
        {
            "name" : "KS5_1291-3_Freigestellt_web_klein.001",
            "primitives" : [
                {
                    "attributes" : {
                        "POSITION" : 13,
                        "NORMAL" : 14,
                        "TEXCOORD_0" : 15
                    },
                    "indices" : 3,
                    "material" : 4
                }
            ]
        },
        {
            "name" : "KS5_1291-2_freigestellt_klein.001",
            "primitives" : [
                {
                    "attributes" : {
                        "POSITION" : 16,
                        "NORMAL" : 17,
                        "TEXCOORD_0" : 18
                    },
                    "indices" : 3,
                    "material" : 5
                }
            ]
        }
    ],
    "textures" : [
        {
            "sampler" : 0,
            "source" : 0
        },
        {
            "sampler" : 0,
            "source" : 1
        },
        {
            "sampler" : 0,
            "source" : 2
        },
        {
            "sampler" : 0,
            "source" : 2
        },
        {
            "sampler" : 0,
            "source" : 1
        },
        {
            "sampler" : 0,
            "source" : 0
        }
    ],
    "images" : [
        {
            "bufferView" : 4,
            "mimeType" : "image/png",
            "name" : "KS5_1291-2_freigestellt_klein"
        },
        {
            "bufferView" : 8,
            "mimeType" : "image/png",
            "name" : "KS5_1291-3_Freigestellt_web_klein"
        },
        {
            "bufferView" : 12,
            "mimeType" : "image/png",
            "name" : "KS5_1291_freigestellt_web_klein"
        }
    ],
    "accessors" : [
        {
            "bufferView" : 0,
            "componentType" : 5126,
            "count" : 4,
            "max" : [
                0.13600000739097595,
                0,
                0.5
            ],
            "min" : [
                -0.13600000739097595,
                0,
                -0.5
            ],
            "type" : "VEC3"
        },
        {
            "bufferView" : 1,
            "componentType" : 5126,
            "count" : 4,
            "type" : "VEC3"
        },
        {
            "bufferView" : 2,
            "componentType" : 5126,
            "count" : 4,
            "type" : "VEC2"
        },
        {
            "bufferView" : 3,
            "componentType" : 5123,
            "count" : 6,
            "type" : "SCALAR"
        },
        {
            "bufferView" : 5,
            "componentType" : 5126,
            "count" : 4,
            "max" : [
                0.12150000035762787,
                0,
                0.5
            ],
            "min" : [
                -0.12150000035762787,
                0,
                -0.5
            ],
            "type" : "VEC3"
        },
        {
            "bufferView" : 6,
            "componentType" : 5126,
            "count" : 4,
            "type" : "VEC3"
        },
        {
            "bufferView" : 7,
            "componentType" : 5126,
            "count" : 4,
            "type" : "VEC2"
        },
        {
            "bufferView" : 9,
            "componentType" : 5126,
            "count" : 4,
            "max" : [
                0.14149999618530273,
                0,
                0.5
            ],
            "min" : [
                -0.14149999618530273,
                0,
                -0.5
            ],
            "type" : "VEC3"
        },
        {
            "bufferView" : 10,
            "componentType" : 5126,
            "count" : 4,
            "type" : "VEC3"
        },
        {
            "bufferView" : 11,
            "componentType" : 5126,
            "count" : 4,
            "type" : "VEC2"
        },
        {
            "bufferView" : 13,
            "componentType" : 5126,
            "count" : 4,
            "max" : [
                0.14149999618530273,
                0,
                0.5
            ],
            "min" : [
                -0.14149999618530273,
                0,
                -0.5
            ],
            "type" : "VEC3"
        },
        {
            "bufferView" : 14,
            "componentType" : 5126,
            "count" : 4,
            "type" : "VEC3"
        },
        {
            "bufferView" : 15,
            "componentType" : 5126,
            "count" : 4,
            "type" : "VEC2"
        },
        {
            "bufferView" : 16,
            "componentType" : 5126,
            "count" : 4,
            "max" : [
                0.12150000035762787,
                0,
                0.5
            ],
            "min" : [
                -0.12150000035762787,
                0,
                -0.5
            ],
            "type" : "VEC3"
        },
        {
            "bufferView" : 17,
            "componentType" : 5126,
            "count" : 4,
            "type" : "VEC3"
        },
        {
            "bufferView" : 18,
            "componentType" : 5126,
            "count" : 4,
            "type" : "VEC2"
        },
        {
            "bufferView" : 19,
            "componentType" : 5126,
            "count" : 4,
            "max" : [
                0.13600000739097595,
                0,
                0.5
            ],
            "min" : [
                -0.13600000739097595,
                0,
                -0.5
            ],
            "type" : "VEC3"
        },
        {
            "bufferView" : 20,
            "componentType" : 5126,
            "count" : 4,
            "type" : "VEC3"
        },
        {
            "bufferView" : 21,
            "componentType" : 5126,
            "count" : 4,
            "type" : "VEC2"
        }
    ],
    "bufferViews" : [
        {
            "buffer" : 0,
            "byteLength" : 48,
            "byteOffset" : 0
        },
        {
            "buffer" : 0,
            "byteLength" : 48,
            "byteOffset" : 48
        },
        {
            "buffer" : 0,
            "byteLength" : 32,
            "byteOffset" : 96
        },
        {
            "buffer" : 0,
            "byteLength" : 12,
            "byteOffset" : 128
        },
        {
            "buffer" : 0,
            "byteLength" : 480351,
            "byteOffset" : 140
        },
        {
            "buffer" : 0,
            "byteLength" : 48,
            "byteOffset" : 480492
        },
        {
            "buffer" : 0,
            "byteLength" : 48,
            "byteOffset" : 480540
        },
        {
            "buffer" : 0,
            "byteLength" : 32,
            "byteOffset" : 480588
        },
        {
            "buffer" : 0,
            "byteLength" : 569840,
            "byteOffset" : 480620
        },
        {
            "buffer" : 0,
            "byteLength" : 48,
            "byteOffset" : 1050460
        },
        {
            "buffer" : 0,
            "byteLength" : 48,
            "byteOffset" : 1050508
        },
        {
            "buffer" : 0,
            "byteLength" : 32,
            "byteOffset" : 1050556
        },
        {
            "buffer" : 0,
            "byteLength" : 567068,
            "byteOffset" : 1050588
        },
        {
            "buffer" : 0,
            "byteLength" : 48,
            "byteOffset" : 1617656
        },
        {
            "buffer" : 0,
            "byteLength" : 48,
            "byteOffset" : 1617704
        },
        {
            "buffer" : 0,
            "byteLength" : 32,
            "byteOffset" : 1617752
        },
        {
            "buffer" : 0,
            "byteLength" : 48,
            "byteOffset" : 1617784
        },
        {
            "buffer" : 0,
            "byteLength" : 48,
            "byteOffset" : 1617832
        },
        {
            "buffer" : 0,
            "byteLength" : 32,
            "byteOffset" : 1617880
        },
        {
            "buffer" : 0,
            "byteLength" : 48,
            "byteOffset" : 1617912
        },
        {
            "buffer" : 0,
            "byteLength" : 48,
            "byteOffset" : 1617960
        },
        {
            "buffer" : 0,
            "byteLength" : 32,
            "byteOffset" : 1618008
        }
    ],
    "samplers" : [
        {
            "magFilter" : 9729,
            "minFilter" : 9987,
            "wrapS" : 33071,
            "wrapT" : 33071
        }
    ],
    "buffers" : [
        {
            "byteLength" : 1618040,
            "uri" : "data:application/octet-stream;base64,"
        }
    ]
}
